<?xml version="1.0" encoding="UTF-8" ?>
<!DOCTYPE svg PUBLIC "-//W3C//DTD SVG 1.1//EN" "http://www.w3.org/Graphics/SVG/1.1/DTD/svg11.dtd">
<svg width="500pt" height="124pt" viewBox="0 0 500 124" version="1.1" xmlns="http://www.w3.org/2000/svg">
<g id="#d2474eff">
<path fill="#d2474e" opacity="1.00" d=" M 31.60 20.59 C 34.82 15.98 37.64 11.08 41.17 6.70 C 37.47 20.60 32.43 34.13 28.06 47.85 C 33.10 47.75 38.15 47.78 43.19 47.85 C 40.12 53.71 36.41 59.20 32.96 64.84 C 37.43 64.73 41.90 64.75 46.36 64.83 C 37.26 79.11 27.51 92.97 18.15 107.09 C 16.01 110.14 14.26 113.53 11.43 116.03 C 15.08 102.26 20.42 88.97 24.27 75.24 C 20.34 75.24 16.42 75.25 12.50 75.20 C 14.76 70.23 16.86 65.19 19.20 60.25 C 14.60 60.21 10.01 60.28 5.42 60.13 C 13.78 46.72 22.93 33.81 31.60 20.59 Z" />
<path fill="#d2474e" opacity="1.00" d=" M 479.25 28.25 C 484.93 23.47 493.16 22.93 500.00 25.29 L 500.00 32.29 C 495.37 31.24 490.03 29.80 485.77 32.71 C 482.45 35.06 482.99 39.45 482.78 42.99 C 487.52 43.01 492.26 43.00 497.00 43.01 C 496.99 45.33 496.99 47.66 497.00 49.99 C 492.33 50.00 487.67 50.00 483.00 50.00 C 482.99 63.67 483.01 77.33 483.00 91.00 C 480.33 91.00 477.66 91.00 475.00 91.00 C 474.99 77.35 475.00 63.70 475.00 50.05 C 473.08 50.01 471.16 49.97 469.25 49.92 C 469.27 47.64 469.27 45.35 469.25 43.07 C 471.13 43.03 473.01 43.01 474.90 42.98 C 474.59 37.76 475.77 32.29 479.25 28.25 Z" />
<path fill="#d2474e" opacity="1.00" d=" M 244.00 24.81 C 246.67 24.80 249.33 24.80 252.00 24.81 C 252.00 46.88 252.00 68.94 252.00 91.00 C 249.35 91.00 246.71 91.00 244.06 91.01 C 244.01 89.55 243.95 88.09 243.88 86.63 C 239.89 88.94 235.93 92.31 231.04 92.04 C 227.76 91.94 224.20 92.59 221.28 90.71 C 214.33 87.33 211.10 79.48 210.66 72.13 C 209.37 67.88 210.68 63.57 211.32 59.35 C 213.09 52.51 217.47 45.81 224.37 43.36 C 230.74 40.50 237.93 42.18 244.00 44.96 C 244.00 38.25 243.99 31.53 244.00 24.81 M 220.34 57.35 C 218.14 62.27 219.18 67.78 219.02 72.99 C 219.59 77.58 221.87 82.96 226.81 84.18 C 232.84 86.63 238.83 82.58 244.00 79.84 C 244.01 70.56 243.98 61.28 244.02 52.01 C 240.93 50.17 237.33 49.69 233.86 49.07 C 228.29 48.89 222.46 52.03 220.34 57.35 Z" />
<path fill="#d2474e" opacity="1.00" d=" M 450.85 24.82 C 453.51 24.80 456.18 24.81 458.85 24.83 C 458.85 46.88 458.82 68.93 458.86 90.98 C 456.19 91.00 453.51 91.00 450.85 91.00 C 450.83 68.94 450.83 46.88 450.85 24.82 Z" />
<path fill="#d2474e" opacity="1.00" d=" M 85.78 26.73 C 91.80 25.06 98.03 26.63 103.93 28.07 C 106.98 29.19 110.47 29.98 112.91 32.18 C 113.16 35.51 112.96 38.85 113.00 42.18 C 106.42 36.51 97.86 32.71 89.03 33.71 C 82.35 33.82 75.82 37.81 72.88 43.85 C 68.89 51.64 68.50 60.91 70.73 69.27 C 72.62 76.72 78.87 83.12 86.53 84.50 C 96.06 86.71 105.53 82.33 112.96 76.66 C 113.02 80.01 113.00 83.36 113.00 86.71 C 108.11 88.87 103.07 90.76 97.81 91.82 C 90.20 92.46 82.20 92.30 75.29 88.65 C 66.85 83.90 61.73 74.56 61.00 65.06 C 61.09 58.58 60.26 51.88 62.72 45.70 C 65.91 35.60 75.28 27.98 85.78 26.73 Z" />
<path fill="#d2474e" opacity="1.00" d=" M 267.73 27.00 C 270.73 27.00 273.74 27.00 276.76 27.03 C 276.73 29.68 276.73 32.32 276.76 34.96 C 273.74 35.00 270.73 35.00 267.73 35.00 C 267.71 32.33 267.71 29.67 267.73 27.00 Z" />
<path fill="#d2474e" opacity="1.00" d=" M 292.00 29.90 C 294.67 29.90 297.33 29.90 299.99 29.90 C 300.00 34.27 300.00 38.63 300.00 43.00 C 305.60 43.01 311.20 42.98 316.80 43.03 C 316.78 45.34 316.78 47.66 316.80 49.97 C 311.20 50.02 305.60 49.99 300.00 50.00 C 300.01 58.68 299.99 67.36 299.99 76.03 C 300.07 78.84 300.74 82.10 303.30 83.69 C 307.45 86.43 312.60 84.58 316.92 83.28 C 316.78 85.77 316.77 88.26 316.81 90.76 C 309.85 92.18 301.55 93.53 295.80 88.25 C 293.28 84.75 291.88 80.37 291.97 76.05 C 292.02 67.37 291.99 58.69 292.00 50.01 C 290.33 50.00 288.66 50.00 287.00 49.99 C 286.99 47.66 286.99 45.34 287.00 43.02 C 288.66 43.00 290.33 43.00 292.00 42.99 C 292.00 38.62 292.00 34.26 292.00 29.90 Z" />
<path fill="#d2474e" opacity="1.00" d=" M 162.18 52.21 C 169.01 40.25 188.41 38.00 197.27 48.81 C 201.55 54.23 201.43 61.45 201.54 68.00 C 189.78 68.01 178.02 67.99 166.26 68.01 C 166.69 73.78 168.60 80.01 173.98 83.02 C 182.75 87.39 193.45 84.52 201.01 78.97 C 200.86 81.88 200.99 84.80 200.78 87.71 C 197.56 90.00 193.39 90.54 189.65 91.67 C 181.26 92.83 171.55 92.11 165.22 85.81 C 159.88 81.18 158.59 73.77 158.03 67.09 C 158.76 62.00 159.28 56.62 162.18 52.21 M 166.36 62.01 C 175.64 61.97 184.93 62.06 194.21 61.96 C 193.30 58.44 193.15 54.31 190.29 51.70 C 186.71 47.77 180.88 49.02 176.17 49.18 C 170.59 50.84 166.95 56.37 166.36 62.01 Z" />
<path fill="#d2474e" opacity="1.00" d=" M 411.36 42.34 C 418.54 40.98 426.70 42.69 431.78 48.23 C 436.54 53.56 438.44 60.98 438.05 68.02 C 438.46 77.01 433.92 86.51 425.63 90.52 C 421.41 92.76 416.52 91.92 411.95 91.98 C 405.55 91.17 399.79 86.84 396.99 81.02 C 392.62 71.24 392.94 59.11 399.08 50.13 C 401.72 45.82 406.64 43.58 411.36 42.34 M 412.32 49.34 C 403.04 51.76 401.82 63.00 402.80 70.98 C 402.75 76.68 406.05 82.42 411.35 84.72 C 416.25 85.68 422.08 85.58 425.72 81.67 C 429.39 77.00 430.26 70.74 430.01 64.98 C 429.41 60.42 428.65 55.26 424.84 52.18 C 421.77 48.66 416.56 48.44 412.32 49.34 Z" />
<path fill="#d2474e" opacity="1.00" d=" M 124.59 43.00 C 127.20 43.00 129.82 43.00 132.43 43.00 C 132.45 45.43 132.47 47.86 132.54 50.29 C 138.41 45.66 146.42 40.97 154.01 44.13 C 154.00 46.82 154.00 49.51 153.96 52.20 C 146.63 49.33 138.62 52.00 132.81 56.83 C 132.27 58.13 132.52 59.58 132.44 60.95 C 132.48 70.97 132.50 80.98 132.43 91.00 C 129.82 91.00 127.21 91.00 124.59 91.00 C 124.54 75.00 124.54 59.00 124.59 43.00 Z" />
<path fill="#d2474e" opacity="1.00" d=" M 268.00 43.00 C 270.66 43.00 273.33 43.00 276.00 43.00 C 276.00 59.00 276.00 75.00 276.00 91.00 C 273.33 91.00 270.67 91.00 268.00 91.00 C 268.00 75.00 268.00 59.00 268.00 43.00 Z" />
<path fill="#d2474e" opacity="1.00" d=" M 321.85 43.00 C 324.60 43.00 327.34 43.00 330.09 42.96 C 333.17 54.13 335.48 65.51 338.24 76.76 C 338.56 77.69 338.95 78.60 339.42 79.48 C 343.32 67.32 347.03 55.09 351.16 43.00 C 353.34 43.00 355.52 43.00 357.71 43.00 C 361.35 55.51 365.84 67.77 369.63 80.24 C 372.75 67.89 375.11 55.36 378.16 43.00 C 380.83 43.00 383.50 43.00 386.17 43.01 C 381.97 58.99 377.74 74.97 373.76 91.00 C 371.25 91.00 368.74 91.00 366.23 91.00 C 362.08 79.03 358.49 66.87 354.10 55.00 C 349.52 66.82 346.04 79.05 341.82 91.00 C 339.31 91.00 336.80 91.00 334.30 91.00 C 330.58 74.91 326.09 58.97 321.85 43.00 Z" />
<path fill="#d2474e" opacity="1.00" d=" M 11.22 116.10 C 11.83 116.70 11.83 116.70 11.22 116.10 Z" />
</g>
</svg>
