<svg width="18" height="18" viewBox="0 0 18 18" fill="none" xmlns="http://www.w3.org/2000/svg">
	<g clip-path="url(#clip0)">
		<path d="M13.8751 18C13.7791 18 13.6831 17.9633 13.6096 17.8905L9.85959 14.1405C9.75234 14.0332 9.72009 13.872 9.77859 13.7318C9.83709 13.5915 9.97359 13.5 10.1251 13.5H12.0001V9.75C12.0001 9.33675 12.3361 9 12.7501 9H15.0001C15.4141 9 15.7501 9.33675 15.7501 9.75V13.5H17.6251C17.7766 13.5 17.9138 13.5915 17.9716 13.7318C18.0293 13.872 17.9971 14.0332 17.8906 14.1405L14.1406 17.8905C14.0671 17.9633 13.9711 18 13.8751 18ZM11.0303 14.25L13.8751 17.0947L16.7198 14.25H15.3751C15.1681 14.25 15.0001 14.082 15.0001 13.875V9.75H12.7501V13.875C12.7501 14.082 12.5821 14.25 12.3751 14.25H11.0303Z" fill="white" />
		<path d="M8.625 15.75H1.875C0.84075 15.75 0 14.9085 0 13.875V4.125C0 3.0915 0.84075 2.25 1.875 2.25H16.125C17.1593 2.25 18 3.0915 18 4.125V11.625C18 11.832 17.832 12 17.625 12C17.418 12 17.25 11.832 17.25 11.625V4.125C17.25 3.50475 16.7453 3 16.125 3H1.875C1.25475 3 0.75 3.50475 0.75 4.125V13.875C0.75 14.4952 1.25475 15 1.875 15H8.625C8.832 15 9 15.168 9 15.375C9 15.582 8.832 15.75 8.625 15.75Z" fill="white" />
		<path d="M5.625 12H0.375C0.168 12 0 11.832 0 11.625V6.375C0 6.168 0.168 6 0.375 6H5.625C6.65925 6 7.5 6.8415 7.5 7.875V10.125C7.5 11.1585 6.65925 12 5.625 12ZM0.75 11.25H5.625C6.24525 11.25 6.75 10.7453 6.75 10.125V7.875C6.75 7.25475 6.24525 6.75 5.625 6.75H0.75V11.25Z" fill="white" />
		<path d="M3.75 10.5C2.92275 10.5 2.25 9.82725 2.25 9C2.25 8.17275 2.92275 7.5 3.75 7.5C4.57725 7.5 5.25 8.17275 5.25 9C5.25 9.82725 4.57725 10.5 3.75 10.5ZM3.75 8.25C3.336 8.25 3 8.58675 3 9C3 9.41325 3.336 9.75 3.75 9.75C4.164 9.75 4.5 9.41325 4.5 9C4.5 8.58675 4.164 8.25 3.75 8.25Z" fill="white" />
	</g>
	<defs>
		<clipPath id="clip0">
			<rect width="18" height="18" fill="white" />
		</clipPath>
	</defs>
</svg>
