<svg width="17" height="15" viewBox="0 0 17 15" fill="none" xmlns="http://www.w3.org/2000/svg">
	<path d="M11.3591 8.81338C11.0846 9.0856 10.6414 9.08376 10.3692 8.80925C10.097 8.53475 10.0988 8.09154 10.3733 7.81931L11.3591 8.81338ZM13.3981 5.80545L12.9052 5.30842L13.3981 4.8196L13.891 5.30842L13.3981 5.80545ZM16.4229 7.81931C16.6974 8.09154 16.6993 8.53475 16.4271 8.80925C16.1548 9.08376 15.7116 9.0856 15.4371 8.81338L16.4229 7.81931ZM10.3733 7.81931L12.9052 5.30842L13.891 6.30248L11.3591 8.81338L10.3733 7.81931ZM13.891 5.30842L16.4229 7.81931L15.4371 8.81338L12.9052 6.30248L13.891 5.30842Z" fill="#333333" />
	<path d="M13.398 6.6424V14.1751H7.49023" stroke="#333333" stroke-width="1.4" stroke-linecap="round" stroke-linejoin="round" />
	<path d="M5.49684 6.51737C5.77134 6.24515 6.21455 6.24699 6.48678 6.5215C6.759 6.796 6.75716 7.23921 6.48265 7.51144L5.49684 6.51737ZM3.45784 9.5253L3.95075 10.0223L3.45784 10.5111L2.96493 10.0223L3.45784 9.5253ZM0.433025 7.51144C0.158521 7.23921 0.156674 6.796 0.4289 6.5215C0.701125 6.24699 1.14434 6.24515 1.41884 6.51737L0.433025 7.51144ZM6.48265 7.51144L3.95075 10.0223L2.96493 9.02827L5.49684 6.51737L6.48265 7.51144ZM2.96493 10.0223L0.433025 7.51144L1.41884 6.51737L3.95075 9.02827L2.96493 10.0223Z" fill="#333333" />
	<path d="M3.45794 8.68832L3.45794 1.15564L9.36572 1.15564" stroke="#333333" stroke-width="1.4" stroke-linecap="round" stroke-linejoin="round" />
</svg>
